#!OML:ASF F:\VICON\USERDATA\INSTALL\Justin_Nancy\Justin_Nancy.ASF
:FULLY-SPECIFIED
:DEGREES
223
root 1.95101 17.4732 1.93612 -2.73021 -45.5824 3.64505
lowerback 7.30989 2.40129 -1.09063
upperback 0.424799 3.14834 1.26694
thorax -3.78678 1.58811 1.59037
lowerneck -15.6235 -2.65429 -9.70611
upperneck 23.0899 -2.50819 4.93545
head 10.1335 -1.48158 3.03604
rclavicle 1.67973e-014 -1.59028e-015
rhumerus -32.7124 -12.9856 -79.2623
rradius 31.8713
rwrist 4.91496
rhand -12.712 13.893
rfingers 7.12502
rthumb 13.3708 -15.6579
lclavicle 1.67973e-014 -1.59028e-015
lhumerus -36.1852 18.4447 78.79
lradius 20.874
lwrist -15.2638
lhand -11.5455 26.1829
lfingers 7.12502
lthumb 14.4949 55.6566
rfemur -8.95762 0.382789 21.9775
rtibia 60.5416
rfoot 20.4924 10.3521
rtoes 17.9091
lfemur -18.9663 -4.16354 -22.9346
ltibia 24.2352
lfoot -6.81169 -10.8351
ltoes -1.72581
224
root 1.85685 17.4923 2.06192 -3.49569 -45.8631 4.53311
lowerback 7.25241 2.40802 -1.60736
upperback 0.621045 3.10432 1.00493
thorax -3.56232 1.5697 1.62073
lowerneck -16.1163 -2.74137 -9.40429
upperneck 23.1674 -2.63183 4.82264
head 10.2593 -1.51974 2.92796
rclavicle 9.6013e-014 -8.74653e-015
rhumerus -32.5104 -12.95 -79.5895
rradius 31.7415
rwrist 4.92681
rhand -13.109 13.4969
rfingers 7.12502
rthumb 12.9881 -16.0788
lclavicle 9.6013e-014 -8.74653e-015
lhumerus -35.5389 17.6975 79.109
lradius 20.681
lwrist -15.1789
lhand -11.8213 26.1043
lfingers 7.12502
lthumb 14.2292 55.5968
rfemur -10.4981 0.40931 20.9625
rtibia 62.8418
rfoot 21.83 9.30269
rtoes 20.294
lfemur -17.8473 -4.41532 -23.6442
ltibia 23.4163
lfoot -6.38385 -10.8263
ltoes 2.45135
225
root 1.76379 17.5145 2.18665 -3.87275 -46.2292 4.83257
lowerback 7.28694 2.26707 -1.87663
upperback 0.619993 2.89832 1.11408
thorax -3.5932 1.47255 1.9049
lowerneck -15.8192 -2.63298 -9.6247
upperneck 23.0162 -2.42368 4.72375
head 10.1345 -1.45648 2.95595
rclavicle -2.55438e-014 -2.38542e-015
rhumerus -32.756 -12.1935 -79.5631
rradius 31.7649
rwrist 4.72793
rhand -13.0404 13.4978
rfingers 7.12502
rthumb 13.0542 -16.0737
lclavicle -2.55438e-014 -2.38542e-015
lhumerus -35.6316 17.4228 79.4048
lradius 20.7263
lwrist -15.1528
lhand -11.6779 26.3491
lfingers 7.12502
lthumb 14.3673 55.8319
rfemur -11.8136 0.581719 20.4939
rtibia 64.727
rfoot 21.6669 7.99417
rtoes 22.2638
lfemur -17.4218 -4.26775 -24.0274
ltibia 24.1844
lfoot -7.84264 -10.7688
ltoes -0.39094
226
root 1.66837 17.6111 2.30275 -4.38109 -46.3572 5.43409
lowerback 7.36869 2.10046 -2.48027
upperback 0.538591 2.62993 1.2137
thorax -3.74247 1.35235 2.37122
lowerneck -15.4068 -2.46638 -9.82776
upperneck 22.8583 -2.12563 4.51193
head 9.97747 -1.36371 2.95211
rclavicle 3.79182e-014 1.03368e-014
rhumerus -33.0855 -11.6702 -79.3249
rradius 31.7743
rwrist 4.90103
rhand -12.951 13.7097
rfingers 7.12502
rthumb 13.1404 -15.8563
lclavicle 3.79182e-014 1.03368e-014
lhumerus -35.5806 16.7144 79.9873
lradius 20.6125
lwrist -14.6949
lhand -11.8191 26.3634
lfingers 7.12502
lthumb 14.2313 55.8558
rfemur -13.02 0.180177 19.9086
rtibia 66.1313
rfoot 19.8996 7.95826
rtoes 18.6674
lfemur -15.674 0.329667 -26.0698
ltibia 25.4785
lfoot -16.34 -8.76377
ltoes -32.8113
227
root 1.57816 17.6269 2.41174 -4.63641 -46.3971 5.81329
lowerback 7.51019 2.12209 -2.7245
upperback 0.485201 2.62612 0.984529
thorax -3.8771 1.35495 2.26525
lowerneck -15.3929 -2.4878 -9.26088
upperneck 22.8966 -2.23599 4.22236
head 9.98578 -1.39982 2.73985
rclavicle -1.98288e-014 1.51076e-014
rhumerus -33.3178 -12.4819 -79.2756
rradius 31.6596
rwrist 5.27379
rhand -12.7972 13.9637
rfingers 7.12502
rthumb 13.2887 -15.5927
lclavicle -1.98288e-014 1.51076e-014
lhumerus -35.0158 15.6238 80.1776
lradius 20.3306
lwrist -14.5271
lhand -12.1986 25.9123
lfingers 7.12502
lthumb 13.8656 55.4301
rfemur -14.4832 -0.37225 19.5315
rtibia 67.7398
rfoot 17.5091 7.14723
rtoes 17.2739
lfemur -15.2402 0.98509 -26.6427
ltibia 26.2394
lfoot -17.2568 -8.13927
ltoes -33.6754
228
root 1.4886 17.6217 2.52558 -4.54368 -46.4899 5.59228
lowerback 7.64934 2.04147 -2.48163
upperback 0.510777 2.53062 0.862605
thorax -3.90619 1.30198 2.00923
lowerneck -15.6848 -2.47117 -8.80629
upperneck 23.1232 -2.27949 4.10148
head 10.1169 -1.39599 2.61706
rclavicle -4.11981e-014 -7.15625e-015
rhumerus -33.3939 -13.0906 -79.3835
rradius 31.5983
rwrist 5.41691
rhand -12.905 13.5098
rfingers 7.12502
rthumb 13.1848 -16.0533
lclavicle -4.11981e-014 -7.15625e-015
lhumerus -34.5467 15.4589 79.8618
lradius 20.2053
lwrist -15.255
lhand -12.0039 25.6457
lfingers 7.12502
lthumb 14.0532 55.1506
rfemur -15.8285 -0.707733 19.6137
rtibia 69.2645
rfoot 14.8979 5.77299
rtoes 18.5086
lfemur -15.0455 0.195039 -26.32
ltibia 26.3882
lfoot -16.3116 -8.49471
ltoes -31.0766
229
root 1.4029 17.6063 2.63777 -4.411 -46.5336 5.26522
lowerback 7.7065 1.76275 -2.27428
upperback 0.551011 2.18157 1.01126
thorax -3.875 1.12545 2.08558
lowerneck -15.6299 -2.31943 -8.92909
upperneck 23.1196 -2.01917 4.01807
head 10.0874 -1.29798 2.64272
rclavicle -4.42793e-014 -1.03368e-014
rhumerus -33.4861 -12.6147 -79.4723
rradius 31.7762
rwrist 5.25831
rhand -13.6088 12.324
rfingers 7.12502
rthumb 12.5063 -17.2817
lclavicle -4.42793e-014 -1.03368e-014
lhumerus -34.4049 16.1102 79.5749
lradius 20.305
lwrist -16.2224
lhand -11.8365 26.0661
lfingers 7.12502
lthumb 14.2145 55.5598
rfemur -17.2484 -1.20551 19.7644
rtibia 70.7501
rfoot 12.2775 4.71309
rtoes 17.777
lfemur -14.3812 -1.35684 -25.7014
ltibia 24.9811
lfoot -13.8385 -9.72877
ltoes -24.0903
